<?xml version="1.0" standalone="no"?>
<!DOCTYPE svg PUBLIC "-//W3C//DTD SVG 20010904//EN"
 "http://www.w3.org/TR/2001/REC-SVG-20010904/DTD/svg10.dtd">
<svg version="1.0" xmlns="http://www.w3.org/2000/svg"
 width="2048.000000pt" height="2048.000000pt" viewBox="0 0 2048.000000 2048.000000"
 preserveAspectRatio="xMidYMid meet">
<metadata>
Created by potrace 1.11, written by Peter Selinger 2001-2013
</metadata>
<g transform="translate(0.000000,2048.000000) scale(0.100000,-0.100000)"
fill="#000000" stroke="none">
<path d="M0 10240 l0 -10240 10240 0 10240 0 0 10240 0 10240 -10240 0 -10240
0 0 -10240z m12162 9339 c145 -30 271 -129 335 -265 38 -78 38 -80 38 -204 0
-124 0 -126 -38 -204 -42 -88 -122 -175 -200 -216 l-47 -25 0 -545 -1 -545
-504 -430 -504 -430 0 -1412 -1 -1413 260 0 260 0 1 1088 1 1087 526 475 527
475 3 346 2 345 -42 21 c-24 11 -66 41 -94 67 -105 93 -156 211 -156 356 -1
385 424 609 748 394 68 -45 126 -116 168 -204 30 -62 31 -71 31 -190 0 -123
-1 -126 -36 -200 -45 -94 -108 -165 -187 -210 l-61 -35 -1 -427 0 -427 -522
-473 c-288 -259 -526 -477 -530 -483 -4 -5 -8 -459 -8 -1007 l0 -998 165 0
165 0 0 479 0 479 650 562 650 562 0 258 0 258 -54 31 c-227 127 -309 440
-174 660 90 146 241 231 413 231 295 0 511 -248 474 -544 -17 -138 -112 -278
-235 -347 l-54 -31 0 -346 -1 -347 -644 -555 -644 -555 -1 -410 0 -411 63 -13
c98 -20 203 -59 320 -119 435 -221 726 -661 754 -1140 l6 -112 556 2 555 3
819 973 819 972 442 0 443 0 36 73 c130 263 457 349 699 184 238 -162 277
-499 84 -714 -202 -225 -562 -207 -741 37 l-37 50 -376 -1 -377 0 -819 -974
-819 -975 -641 -2 -641 -3 -3 -187 -2 -188 1258 0 1258 0 410 446 c225 245
417 457 427 470 17 22 17 25 1 56 -48 93 -58 246 -23 351 37 112 117 210 219
269 141 82 353 77 492 -11 158 -100 248 -296 219 -475 -14 -90 -66 -197 -125
-259 -103 -106 -219 -152 -372 -145 l-94 4 -493 -538 -492 -537 -1342 -1
-1343 0 0 -190 0 -190 1498 0 1497 1 35 61 c45 79 116 142 210 187 73 35 78
36 195 36 142 0 199 -18 298 -93 281 -215 233 -656 -88 -808 -194 -92 -424
-46 -564 112 -24 27 -53 68 -64 92 l-21 42 -1498 0 -1498 0 0 -250 0 -250
2153 0 2152 0 24 45 c124 234 448 319 673 176 114 -72 200 -205 221 -340 47
-309 -230 -588 -540 -542 -142 21 -277 110 -346 230 l-33 56 -2150 0 -2149 0
0 -200 0 -200 1502 -5 1501 -5 432 -503 432 -502 456 2 456 3 33 56 c69 119
200 207 340 230 314 51 599 -235 546 -548 -24 -138 -118 -274 -236 -342 -139
-80 -326 -81 -471 -3 -64 34 -154 123 -186 185 l-25 47 -545 0 -545 1 -433
504 -434 505 -1414 0 -1414 0 0 -260 0 -260 1089 0 1089 0 474 -522 473 -523
350 -3 350 -2 24 46 c73 138 259 245 421 243 350 -3 581 -374 429 -687 -144
-295 -538 -364 -768 -133 -31 31 -67 78 -81 104 l-25 47 -429 2 -430 3 -479
528 -478 527 -1005 0 -1004 0 0 -165 0 -165 483 0 482 0 559 -645 558 -645
263 0 263 0 30 53 c92 162 303 262 487 230 230 -39 405 -244 405 -473 0 -305
-301 -541 -593 -465 -125 32 -240 118 -299 223 l-30 52 -346 0 -347 1 -560
647 -561 647 -432 3 -432 2 -12 -27 c-91 -218 -183 -359 -327 -504 -210 -209
-488 -352 -761 -390 -41 -6 -85 -13 -97 -15 l-23 -4 0 -509 0 -509 975 -818
975 -818 0 -446 0 -446 38 -13 c89 -32 191 -119 244 -211 45 -78 61 -152 56
-261 -4 -86 -9 -106 -41 -174 -81 -170 -246 -275 -431 -275 -237 1 -437 169
-476 401 -29 170 50 361 189 459 l50 35 1 377 0 376 -980 823 -980 822 0 594
0 593 -185 0 -185 0 1 -1212 0 -1213 405 -370 c223 -203 432 -394 465 -423
l59 -53 67 26 c176 71 377 30 512 -104 96 -96 141 -203 141 -342 0 -190 -102
-349 -275 -430 -259 -121 -558 5 -656 277 -16 44 -22 81 -21 149 0 50 2 97 4
105 2 10 -177 180 -477 454 -264 241 -508 466 -542 500 l-63 60 0 1288 0 1288
-185 0 -185 0 0 -1449 0 -1448 59 -37 c265 -163 309 -527 90 -745 -92 -92
-208 -140 -339 -141 -132 0 -245 47 -339 141 -220 219 -175 582 91 746 l58 36
0 1449 0 1448 -247 -2 -248 -3 0 -2099 0 -2100 56 -33 c117 -68 208 -202 230
-340 51 -313 -229 -594 -542 -546 -91 15 -202 68 -263 128 -234 227 -180 617
107 770 l37 20 0 2102 0 2103 -200 0 -200 0 -1 -1452 0 -1453 -504 -430 -504
-430 -1 -462 0 -461 53 -30 c104 -59 190 -174 222 -299 65 -249 -94 -511 -350
-578 -342 -89 -669 237 -580 578 32 125 118 240 223 299 l52 30 0 543 0 544
510 437 510 437 -2 1361 -3 1361 -260 0 -260 0 -3 -1040 -2 -1040 -525 -475
-525 -474 0 -346 0 -345 49 -27 c106 -60 194 -176 226 -299 72 -269 -119 -552
-400 -592 -329 -48 -613 266 -530 586 32 125 118 240 222 299 l53 30 0 427 0
427 530 479 530 479 0 958 0 958 -165 0 -165 0 0 -437 -1 -438 -644 -555 -644
-555 -1 -265 0 -265 42 -20 c63 -30 159 -130 196 -203 102 -207 46 -456 -135
-594 -86 -64 -158 -90 -270 -96 -74 -3 -105 0 -161 17 -191 58 -325 225 -339
421 -7 92 9 170 50 252 36 74 132 174 194 203 l43 20 0 347 0 346 650 562 650
562 0 377 0 376 -70 24 c-368 126 -697 445 -835 814 l-18 47 -471 -2 -470 -3
-561 -647 -560 -647 -347 -1 -346 0 -30 -53 c-78 -138 -250 -237 -412 -237
-218 0 -424 167 -469 378 -68 324 209 622 533 575 143 -20 281 -112 348 -231
l30 -52 263 0 263 0 558 645 559 645 520 0 520 0 -3 165 -3 165 -1039 0 -1039
0 -478 -527 -479 -528 -429 -3 -430 -2 -25 -47 c-14 -26 -50 -73 -81 -104
-230 -231 -624 -162 -768 133 -152 313 79 684 429 687 162 2 348 -105 421
-243 l24 -46 350 2 350 3 473 523 474 522 1124 0 1124 0 0 260 0 260 -1449 0
-1450 0 -433 -505 -433 -504 -545 -1 -545 0 -25 -47 c-32 -62 -122 -151 -186
-185 -105 -57 -242 -73 -359 -43 -228 60 -382 294 -348 529 38 263 286 449
545 407 139 -22 273 -113 341 -230 l33 -56 456 -3 456 -2 434 505 433 505
1538 0 1537 0 0 205 0 205 -2187 -2 -2187 -3 -33 -56 c-42 -73 -128 -151 -207
-189 -285 -136 -624 43 -678 358 -31 181 60 381 220 483 225 143 549 58 673
-176 l24 -45 2187 0 2188 0 0 250 0 250 -1533 0 -1533 0 -21 -42 c-11 -24 -40
-65 -64 -92 -255 -288 -741 -164 -825 212 -52 232 73 468 293 552 73 28 203
38 282 20 124 -28 240 -111 301 -218 l35 -61 1533 -1 1532 0 0 190 0 190
-1377 0 -1378 1 -493 537 -492 538 -94 -4 c-110 -5 -199 17 -278 67 -158 100
-248 296 -219 475 22 135 106 265 219 337 139 88 351 93 492 11 102 -59 182
-157 219 -269 35 -105 25 -258 -23 -351 -15 -28 -15 -37 -4 -52 7 -10 200
-221 428 -469 l414 -451 1293 0 1293 0 0 190 0 190 -679 0 -678 0 -734 872
c-404 480 -774 919 -822 975 l-88 103 -373 0 -374 0 -37 -50 c-45 -61 -102
-109 -174 -145 -329 -165 -712 91 -688 460 9 148 84 279 205 362 242 165 569
79 699 -184 l36 -73 443 0 442 0 819 -972 819 -973 590 -3 591 -2 7 97 c44
615 461 1118 1051 1268 l90 23 2 563 3 564 -877 735 c-482 404 -923 775 -980
823 l-103 88 -1 442 0 442 -72 34 c-198 94 -306 325 -252 536 86 328 460 471
737 282 199 -136 264 -398 153 -617 -29 -57 -91 -127 -144 -164 l-41 -29 2
-382 3 -382 970 -814 970 -814 3 -643 2 -642 190 0 190 0 0 1254 0 1253 -452
414 c-248 228 -460 420 -470 427 -16 11 -28 9 -85 -13 -281 -113 -599 72 -646
375 -48 312 232 591 544 543 106 -17 203 -68 277 -147 99 -106 139 -217 129
-362 l-5 -83 539 -493 539 -492 0 -1338 0 -1338 190 0 190 0 0 1494 0 1494
-57 32 c-277 157 -318 552 -80 766 259 233 676 121 779 -209 22 -71 26 -201 8
-269 -31 -114 -120 -230 -223 -288 l-57 -32 0 -1494 0 -1494 250 0 250 0 0
2148 0 2148 -32 16 c-60 28 -135 95 -176 158 -161 240 -78 567 176 695 294
148 639 -28 693 -353 15 -92 0 -190 -43 -281 -37 -78 -140 -186 -206 -215
l-42 -19 0 -2149 0 -2148 205 0 205 0 0 1498 0 1498 505 433 505 434 0 456 0
456 -45 24 c-243 129 -323 455 -169 687 107 162 305 243 496 203z"/>
<path d="M7779 13270 c-314 -78 -549 -333 -598 -650 -9 -56 -11 -690 -9 -2510
l3 -2435 32 -93 c92 -270 295 -460 573 -534 l85 -23 2405 0 c2611 0 2460 -3
2608 56 243 97 422 302 483 554 18 78 19 145 19 2526 0 2409 0 2447 -20 2525
-68 271 -269 483 -545 576 l-70 23 -2445 2 c-2359 2 -2448 1 -2521 -17z m665
-2160 c180 -46 317 -169 361 -324 24 -84 16 -204 -18 -279 -30 -65 -91 -135
-153 -174 -24 -16 -44 -31 -44 -35 0 -4 28 -22 63 -40 81 -43 156 -118 192
-193 41 -82 47 -220 16 -323 -42 -141 -157 -249 -326 -309 l-80 -28 -422 -3
-423 -3 0 865 0 866 378 0 c345 0 386 -2 456 -20z m2896 -135 l0 -155 -240 0
-240 0 0 -710 0 -710 -165 0 -165 0 0 710 0 710 -240 0 -240 0 0 155 0 155
645 0 645 0 0 -155z m1038 82 c223 -78 379 -265 454 -545 29 -109 36 -371 14
-499 -55 -315 -242 -552 -494 -627 -218 -64 -467 -1 -628 159 -117 117 -184
250 -225 447 -18 89 -20 126 -16 273 5 180 20 259 71 385 88 220 263 378 471
426 94 22 262 13 353 -19z m-2598 -832 l0 -825 -155 0 -155 0 0 633 c0 349 -2
636 -5 639 -3 3 -69 -21 -147 -54 -77 -33 -144 -56 -147 -51 -16 18 -114 254
-108 259 3 3 108 55 234 114 l228 108 128 1 127 1 0 -825z"/>
<path d="M7942 10633 l3 -208 144 -3 c188 -3 273 8 325 45 56 39 86 95 86 160
0 67 -13 99 -58 146 -56 57 -103 67 -319 67 l-183 0 2 -207z"/>
<path d="M7948 10144 c-5 -4 -8 -106 -8 -226 l0 -219 228 3 c211 3 230 5 268
25 137 73 162 248 50 351 -24 22 -61 46 -82 52 -45 14 -445 26 -456 14z"/>
<path d="M12090 10781 c-138 -45 -233 -167 -276 -356 -26 -113 -24 -312 4
-417 43 -159 116 -264 220 -315 47 -23 70 -28 132 -28 96 0 169 33 234 106
160 178 191 574 64 822 -29 59 -106 135 -163 165 -53 27 -166 39 -215 23z"/>
</g>
</svg>
